<svg width="360" height="260" xmlns="http://www.w3.org/2000/svg"><circle cx="180" cy="130" r="22" stroke="#00f99e" stroke-width="4" fill="#062731"><animate attributeName="cy" from="130" to="285" dur="690ms" values="130; 134; 200; 285" begin="810ms" keyTimes="0;0.4;0.8;1" calcMode="linear" fill="freeze"/></circle><g fill="#00f99e"><rect width="4" height="18" x="178" y="80" rx="2" ry="2"><animateTransform attributeName="transform" type="rotate" from="0 180 130" to="-30 180 130" dur="540ms" additive="sum" fill="freeze"/><set attributeName="opacity" to="0" begin="540ms"/></rect><rect width="4" height="18" x="178" y="80" rx="2" ry="2" transform="rotate(30 180 130)"><animateTransform attributeName="transform" type="rotate" from="30 180 130" to="-1.5 180 130" dur="570ms"/><set attributeName="opacity" to="0" begin="570ms"/></rect><rect width="4" height="18" x="178" y="80" rx="2" ry="2" transform="rotate(60 180 130)"><animateTransform attributeName="transform" type="rotate" from="60 180 130" to="27 180 130" dur="600ms"/><set attributeName="opacity" to="0" begin="600ms"/></rect><rect width="4" height="18" x="178" y="80" rx="2" ry="2" transform="rotate(90 180 130)"><animateTransform attributeName="transform" type="rotate" from="90 180 130" to="55.5 180 130" dur="630ms"/><set attributeName="opacity" to="0" begin="630ms"/></rect><rect width="4" height="18" x="178" y="80" rx="2" ry="2" transform="rotate(120 180 130)"><animateTransform attributeName="transform" type="rotate" from="120 180 130" to="84 180 130" dur="660ms"/><set attributeName="opacity" to="0" begin="660ms"/></rect><rect width="4" height="18" x="178" y="80" rx="2" ry="2" transform="rotate(150 180 130)"><animateTransform attributeName="transform" type="rotate" from="150 180 130" to="112.5 180 130" dur="690ms"/><set attributeName="opacity" to="0" begin="690ms"/></rect><rect width="4" height="18" x="178" y="80" rx="2" ry="2" transform="rotate(180 180 130)"><animateTransform attributeName="transform" type="rotate" from="180 180 130" to="141 180 130" dur="720ms"/><set attributeName="opacity" to="0" begin="720ms"/></rect><rect width="4" height="18" x="178" y="80" rx="2" ry="2" transform="rotate(210 180 130)"><animateTransform attributeName="transform" type="rotate" from="210 180 130" to="169.5 180 130" dur="750ms"/><set attributeName="opacity" to="0" begin="750ms"/></rect><rect width="4" height="18" x="178" y="80" rx="2" ry="2" transform="rotate(240 180 130)"><animateTransform attributeName="transform" type="rotate" from="240 180 130" to="198 180 130" dur="780ms"/><set attributeName="opacity" to="0" begin="780ms"/></rect><rect width="4" height="18" x="178" y="80" rx="2" ry="2" transform="rotate(270 180 130)"><animateTransform attributeName="transform" type="rotate" from="270 180 130" to="226.5 180 130" dur="810ms"/><set attributeName="opacity" to="0" begin="810ms"/></rect><rect width="4" height="18" x="178" y="80" rx="2" ry="2" transform="rotate(300 180 130)"><animateTransform attributeName="transform" type="rotate" from="300 180 130" to="255 180 130" dur="840ms"/><set attributeName="opacity" to="0" begin="840ms"/></rect><rect width="4" height="18" x="178" y="80" rx="2" ry="2" transform="rotate(330 180 130)"><animateTransform attributeName="transform" type="rotate" from="330 180 130" to="283.5 180 130" dur="870ms"/><set attributeName="opacity" to="0" begin="870ms"/></rect></g><path d="M178 352q21-3 23-22-2-20-23-22 11 22-1 45" stroke="#00f99e" fill="none" stroke-width="4"><animate attributeName="d" begin="1500ms" from="M178 352 Q199 349 201 330 Q199 310 178 308 Q189 330 177 353" to="M178 152 Q199 149 201 130 Q199 110 178 108 Q189 130 177 153" dur="1500ms" values="M178 352 Q199 349 201 330 Q199 310 178 308 Q189 330 177 353;M178 222 Q199 219 201 200 Q199 180 178 178 Q189 200 177 223; M178 152 Q199 149 201 130 Q199 110 178 108 Q189 130 177 153" keyTimes="0;0.2;1" calcMode="linear" fill="freeze"/></path></svg>